control3min_grf.mot
version=1
nRows=25
nColumns 19
inDegrees=yes
endheader
time	1_ground_force_vx	1_ground_force_vy	1_ground_force_vz	1_ground_force_px	1_ground_force_py	1_ground_force_pz	1_ground_torque_x	1_ground_torque_y	1_ground_torque_z	2_ground_force_vx	2_ground_force_vy	2_ground_force_vz	2_ground_force_px	2_ground_force_py	2_ground_force_pz	2_ground_torque_x	2_ground_torque_y	2_ground_torque_z
            3.751500	            1.423851	            6.302889	            1.582628	           -0.233013	            0.005581	           -0.255695	            0.887849	           -0.351738	            0.376228	           -4.153600	           60.030697	           -3.303733	           -0.152729	            0.006164	           -0.762791	           -0.007784	            0.112496	           -0.006191
            3.752000	            2.020020	            7.023477	            1.721808	           -0.233013	            0.005581	           -0.255695	            0.862537	           -0.387954	            0.288732	           -5.211608	           67.577567	           -3.417139	           -0.149977	            0.006178	           -0.763686	           -0.002124	            0.027536	           -0.001392
            3.752500	            2.340367	            7.565122	            1.539907	           -0.233013	            0.005581	           -0.255695	            1.076998	           -0.351604	            0.490001	           -7.014501	           73.832181	           -3.394042	           -0.152555	            0.006165	           -0.762874	           -0.011383	            0.119815	           -0.005508
            3.753000	            2.064542	            8.647646	            1.315948	           -0.233013	            0.005581	           -0.255695	            1.311786	           -0.380229	            0.665509	           -8.816792	           79.903143	           -3.512386	           -0.155769	            0.006160	           -0.764569	           -0.017301	            0.156789	           -0.006892
            3.753500	            2.201907	            9.549001	            1.319471	           -0.233013	            0.005581	           -0.255695	            1.386270	           -0.417045	            0.652201	          -11.220422	           83.764316	           -4.248421	           -0.153924	            0.006162	           -0.763233	           -0.013471	            0.100568	           -0.005101
            3.754000	            1.972398	            9.909881	            1.229874	           -0.233013	            0.005581	           -0.255695	            1.408337	           -0.490451	            0.491660	          -13.666545	           86.517402	           -4.143673	           -0.152074	            0.006170	           -0.763551	           -0.015316	            0.096956	           -0.004644
            3.754500	            2.248139	            9.908755	            1.504327	           -0.233013	            0.005581	           -0.255695	            1.471754	           -0.665927	            0.502478	          -16.199221	           87.245865	           -4.421538	           -0.151267	            0.006173	           -0.763642	           -0.008929	            0.048087	           -0.002437
            3.755000	            2.890966	            9.907109	            1.915437	           -0.233013	            0.005581	           -0.255695	            1.567136	           -0.656840	            0.642435	          -18.493660	           86.870284	           -4.703444	           -0.152203	            0.006171	           -0.764082	           -0.016775	            0.078797	           -0.004266
            3.755500	            2.983610	           10.265889	            2.329459	           -0.172450	            0.006174	           -0.391321	           -0.013433	           -0.046221	           -0.010488	          -19.325995	           83.918188	           -3.962749	           -0.150521	            0.006175	           -0.763448	           -0.018338	            0.079629	           -0.003760
            3.756000	            2.754509	           10.265648	            2.375884	           -0.186064	            0.006169	           -0.390814	            0.008268	            0.030812	            0.007131	          -19.547852	           80.599157	           -2.988986	           -0.147374	            0.006191	           -0.764718	           -0.034401	            0.141841	           -0.005260
            3.756500	            2.616639	           10.266211	            2.238657	           -0.184364	            0.006159	           -0.388244	            0.003035	            0.011909	            0.002597	          -19.637276	           79.491586	           -2.335895	           -0.146464	            0.006194	           -0.764809	           -0.023715	            0.095999	           -0.002821
            3.757000	            2.202704	            9.547625	            1.640463	           -0.233013	            0.005581	           -0.255695	            1.616647	           -0.564883	            0.650995	          -20.087439	           74.514717	           -1.461802	           -0.144291	            0.006207	           -0.766087	           -0.029521	            0.109509	           -0.002148
            3.757500	            2.294273	           10.809305	            1.691502	           -0.170794	            0.006237	           -0.405859	           -0.047953	           -0.225927	           -0.035354	          -20.781902	           72.299889	           -0.765467	           -0.144749	            0.006209	           -0.767312	           -0.023252	            0.080894	           -0.000856
            3.758000	            2.524546	           10.627315	            2.102863	           -0.175563	            0.006271	           -0.414076	           -0.069641	           -0.293159	           -0.058008	          -22.129314	           69.164957	           -0.916843	           -0.140525	            0.006221	           -0.766346	           -0.013659	            0.042690	           -0.000566
            3.758500	            3.260098	           11.164518	            2.974624	           -0.169426	            0.006248	           -0.408556	           -0.055764	           -0.190969	           -0.050881	          -23.105808	           67.135446	           -0.829796	           -0.138888	            0.006227	           -0.766447	           -0.006536	            0.018991	           -0.000235
            3.759000	            3.856608	           11.884516	            3.251372	           -0.178139	            0.006292	           -0.419024	            0.016368	            0.050440	            0.013799	          -23.568969	           65.660400	           -0.787925	           -0.137370	            0.006230	           -0.765767	           -0.004484	            0.012493	           -0.000150
            3.759500	            3.811999	           12.603211	            3.804849	           -0.181110	            0.006245	           -0.408300	            0.028797	            0.095207	            0.028743	          -23.981713	           63.262766	           -0.186222	           -0.134670	            0.006238	           -0.765117	           -0.032192	            0.084921	           -0.000250
            3.760000	            3.674126	           13.865240	            3.764745	           -0.182976	            0.006287	           -0.418178	            0.019466	            0.073459	            0.019946	          -23.797952	           64.365487	            0.615418	           -0.136648	            0.006242	           -0.768237	           -0.007033	            0.019023	            0.000182
            3.760500	            3.810547	           14.948434	            3.402194	           -0.174844	            0.006303	           -0.421513	           -0.021916	           -0.085975	           -0.019568	          -23.510459	           62.705820	            1.547947	           -0.132633	            0.006257	           -0.768402	           -0.013162	            0.035104	            0.000867
            3.761000	            4.451109	           16.752787	            3.041484	           -0.169698	            0.006284	           -0.416861	           -0.077740	           -0.292591	           -0.053120	          -23.559555	           63.438897	            2.489157	           -0.136161	            0.006252	           -0.770532	           -0.006440	            0.017340	            0.000680
            3.761500	            4.635197	           16.571378	            3.315391	           -0.172766	            0.006342	           -0.430611	           -0.082023	           -0.293242	           -0.058668	          -24.398454	           62.327614	            3.424136	           -0.133060	            0.006257	           -0.768727	           -0.057932	            0.147991	            0.008130
            3.762000	            5.185813	           18.192499	            3.641974	           -0.174077	            0.006344	           -0.430958	           -0.048739	           -0.170982	           -0.034229	          -25.291098	           63.059655	            3.802567	           -0.131469	            0.006269	           -0.770464	           -0.025502	            0.063584	            0.003834
            3.762500	            6.011503	           20.354273	            4.016049	           -0.182204	            0.006307	           -0.422832	            0.002165	            0.007330	            0.001446	          -25.807835	           63.426593	            3.663316	           -0.129939	            0.006277	           -0.771166	           -0.008997	            0.022111	            0.001277
            3.763000	            6.287598	           22.154624	            4.573366	           -0.190261	            0.006324	           -0.427030	            0.033520	            0.118109	            0.024381	          -26.702391	           64.710408	            4.231431	           -0.130521	            0.006271	           -0.770080	           -0.008273	            0.020048	            0.001311
            3.763500	            6.471096	           23.956530	            4.764065	           -0.190424	            0.006323	           -0.426886	            0.019640	            0.072709	            0.014459	          -26.891037	           65.077359	            4.420538	           -0.131928	            0.006265	           -0.769920	            0.006886	           -0.016665	           -0.001132
